<?xml version="1.0" standalone="no"?>
<!DOCTYPE svg PUBLIC "-//W3C//DTD SVG 20010904//EN"
 "http://www.w3.org/TR/2001/REC-SVG-20010904/DTD/svg10.dtd">
<svg version="1.0" xmlns="http://www.w3.org/2000/svg"
 width="816.000000pt" height="537.000000pt" viewBox="0 0 816.000000 537.000000"
 preserveAspectRatio="xMidYMid meet">

<g transform="translate(0.000000,537.000000) scale(0.100000,-0.100000)"
fill="#000000" stroke="none">
<path d="M2041 2924 c-28 -36 -27 -79 4 -109 50 -51 135 -15 135 58 0 72 -95
107 -139 51z"/>
<path d="M2851 2756 c-26 -15 -50 -51 -51 -79 -1 -45 31 -79 105 -112 69 -32
105 -63 105 -93 0 -29 -48 -62 -90 -62 -30 0 -47 6 -65 25 -14 13 -25 29 -25
35 0 12 -10 13 -29 1 -12 -8 -13 -14 -3 -35 37 -81 202 -89 241 -12 36 73 1
134 -96 169 -61 22 -93 50 -93 82 0 54 87 74 134 30 29 -27 41 -31 51 -15 9
14 -21 55 -51 68 -33 16 -103 15 -133 -2z"/>
<path d="M3110 2575 l0 -195 25 0 25 0 0 138 1 137 66 -137 c55 -115 70 -138
88 -138 18 0 33 23 88 138 l66 137 1 -137 0 -138 25 0 25 0 0 195 0 195 -22 0
c-20 0 -35 -24 -103 -167 l-80 -167 -79 167 c-69 145 -83 167 -103 167 l-23 0
0 -195z"/>
<path d="M3657 2578 c-47 -105 -84 -195 -81 -199 11 -18 43 6 62 47 l22 44
104 0 104 0 19 -45 c14 -34 23 -45 41 -45 12 0 22 3 22 8 0 4 -38 90 -83 192
-65 146 -87 186 -103 188 -18 3 -32 -22 -107 -190z m174 -25 l18 -43 -85 0
c-99 0 -96 -10 -37 118 l36 77 25 -55 c13 -30 33 -74 43 -97z"/>
<path d="M4000 2575 l0 -195 25 0 c23 0 24 3 27 68 l3 67 42 1 c42 2 44 0 92
-66 34 -46 58 -69 75 -72 14 -3 26 -3 26 -1 0 3 -23 37 -51 75 -28 38 -49 71
-47 73 2 1 13 8 25 14 35 18 56 67 50 118 -9 81 -62 113 -187 113 l-80 0 0
-195z m189 135 c26 -13 43 -65 31 -94 -14 -39 -49 -56 -112 -56 l-58 0 0 86 0
87 60 -6 c34 -4 69 -11 79 -17z"/>
<path d="M4332 2748 c3 -19 9 -21 56 -21 l52 1 0 -174 0 -174 25 0 25 0 0 175
c0 135 3 175 13 174 6 -1 31 -1 55 0 35 1 42 4 42 21 0 19 -7 20 -136 20 -133
0 -135 0 -132 -22z"/>
<path d="M4830 2575 c0 -188 1 -195 20 -195 18 0 20 7 20 85 l0 85 100 0 100
0 0 -85 c0 -84 0 -85 25 -85 l25 0 0 195 0 195 -25 0 c-25 0 -25 -1 -25 -90
l0 -90 -100 0 -100 0 0 90 c0 83 -1 90 -20 90 -19 0 -20 -7 -20 -195z"/>
<path d="M5190 2575 l0 -195 115 0 c108 0 115 1 115 20 0 19 -7 20 -95 20
l-95 0 0 65 0 65 75 0 c68 0 75 2 75 20 0 17 -8 19 -72 22 l-73 3 0 65 0 65
80 2 c44 1 86 2 93 3 6 0 12 9 12 20 0 19 -7 20 -115 20 l-115 0 0 -195z"/>
<path d="M5587 2688 c-19 -46 -58 -134 -86 -195 l-50 -113 25 0 c20 0 29 9 44
45 l19 45 105 0 105 0 20 -45 c16 -36 25 -45 45 -45 24 0 23 4 -62 195 -105
235 -110 239 -165 113z m142 -170 c1 -5 -37 -8 -84 -8 -47 0 -85 2 -85 4 0 2
14 35 31 73 17 37 36 79 41 93 10 23 13 20 54 -65 23 -49 43 -93 43 -97z"/>
<path d="M5890 2575 l0 -195 110 0 c103 0 110 1 110 20 0 19 -7 20 -90 20
l-90 0 0 175 c0 168 -1 175 -20 175 -19 0 -20 -7 -20 -195z"/>
<path d="M6150 2750 c0 -18 7 -20 55 -20 50 0 55 -2 55 -22 1 -13 1 -92 0
-175 l-1 -153 25 0 26 0 2 173 3 172 50 1 c43 1 50 4 53 22 3 22 1 22 -132 22
-129 0 -136 -1 -136 -20z"/>
<path d="M6480 2575 c0 -187 1 -195 20 -195 17 0 19 8 22 83 l3 82 100 0 100
0 3 -82 c3 -75 5 -83 22 -83 19 0 20 8 20 195 0 188 -1 195 -20 195 -19 0 -20
-7 -20 -90 l0 -90 -105 0 -105 0 0 90 c0 83 -1 90 -20 90 -19 0 -20 -7 -20
-195z"/>
<path d="M1947 2742 c-44 -28 -69 -99 -51 -146 12 -32 21 -15 17 29 -5 41 -3
47 30 80 40 40 89 47 132 19 23 -15 27 -15 50 0 39 26 90 20 127 -13 28 -25
33 -36 33 -73 0 -30 -8 -54 -25 -77 -20 -28 -21 -33 -6 -28 10 4 19 7 22 7 11
0 34 64 34 95 0 79 -62 133 -141 121 -51 -8 -75 -8 -144 -2 -36 4 -58 0 -78
-12z"/>
<path d="M1881 2534 c-105 -53 -183 -166 -185 -271 -1 -71 18 -82 42 -24 11
25 29 47 49 58 32 17 33 17 105 -16 153 -69 255 -77 359 -29 79 37 261 176
257 196 -6 25 -54 18 -147 -23 -45 -20 -110 -43 -145 -52 -56 -13 -69 -14
-107 -1 -42 14 -70 41 -56 54 4 4 38 2 76 -5 83 -15 137 -3 164 35 29 39 16
58 -36 50 -32 -5 -64 1 -136 24 -118 38 -170 38 -240 4z"/>
</g>
</svg>
